<svg xmlns="http://www.w3.org/2000/svg" width="30.247" height="67.999" viewBox="0 0 30.247 67.999"><g transform="translate(305.31 160.832)"><rect width="30" height="40" rx="1" transform="translate(-305.31 -160.832)" fill="#fff"/><path d="M-287.975-110.2l13.145-22.364a1.818,1.818,0,0,0-1.6-2.728h-26.291a1.818,1.818,0,0,0-1.6,2.728l13.147,22.364A1.869,1.869,0,0,0-287.975-110.2Z" transform="translate(-0.484 16.454)" fill="#fff"/><g transform="translate(-304.026 -154.685)"><path d="M-301.186-157.23h1.423l3.4,7.8h-1.942l-.672-1.654h-3.031l-.65,1.654h-1.9Zm.662,2.27-.949,2.425h1.908Z" transform="translate(304.558 157.23)"/><path d="M-299.3-157.23h2.6l1.8,5.093h.024l1.807-5.093h2.591v7.8h-1.72v-5.987h-.022l-2.05,5.987h-1.312l-1.973-5.987h-.022v5.987h-1.72Z" transform="translate(308.274 157.23)"/><path d="M-293.2-157.23h2.336l3.32,5.424h.022v-5.424h1.72v7.8h-2.249l-3.407-5.557h-.022v5.557h-1.72Z" transform="translate(312.583 157.23)"/></g></g></svg>